<svg xmlns="http://www.w3.org/2000/svg" viewBox="-35 -35 400 375">
<path d="M 2.89 72.36 Q 19.7 50.8 37.04 29.67 Q 34.18 71.52 28.76 113.12 Q 78.46 50.66 128.49 -11.55 Q 61.73 98.16 6.53 214.12 Q 83.66 122.88 155.36 27.31 Q 86.19 154.23 13.21 279 Q 124.13 133.35 240.28 -8.15 Q 155.42 138.93 67.52 284.21 Q 181.51 144.29 293.76 2.97 Q 209.81 140.25 128.81 279.31 Q 224.86 160.6 318.53 40 Q 249.44 167.29 177.84 293.19 Q 250.58 210.63 315.6 121.85 Q 275.36 198.3 247.71 280.15 Q 284.95 223.6 332.33 175.22" fill="none" stroke="#14cdda" stroke-width="45.66" stroke-opacity="0.36" stroke-linecap="round" stroke-linejoin="round"/>
<path d="M112.20 236.50L80.52 236.50L80.52 68.50L112.20 68.50L112.20 236.50M175.56 236.50L143.88 236.50L143.88 68.50L249.48 68.50L249.48 97.30L175.56 97.30L175.56 137.86L243.72 137.86L243.72 166.66L175.56 166.66" fill="#000000"/>
</svg>
